<svg width="92" height="18" fill="none" xmlns="http://www.w3.org/2000/svg">
    <path d="M61.69 6.143a1.548 1.548 0 0 1 .91.723 1.449 1.449 0 0 1-.17 1.643l-3.49 4.105 3.293 2.676c.154.126.28.28.373.455a1.452 1.452 0 0 1-.193 1.644 1.574 1.574 0 0 1-2.167.175l-3.268-2.66-1.913 2.249a1.51 1.51 0 0 1-.693.657c-.299.14-.636.183-.962.122a1.544 1.544 0 0 1-.845-.463 1.461 1.461 0 0 1-.388-.86 1.455 1.455 0 0 1 0-.309V1.541c-.008-.2.026-.398.1-.585a1.48 1.48 0 0 1 .328-.5c.143-.145.315-.26.505-.338a1.577 1.577 0 0 1 1.705.337c.143.144.254.314.328.501.073.187.107.386.1.586v10.743l4.813-5.658a1.568 1.568 0 0 1 1.634-.484zM17.673.124c-.406 0-.796.156-1.083.435a1.46 1.46 0 0 0-.449 1.049v14.85a1.445 1.445 0 0 0 .428 1.087 1.577 1.577 0 0 0 2.21 0c.143-.144.254-.314.328-.501.073-.187.107-.386.1-.585V1.607c0-.195-.04-.388-.117-.569a1.482 1.482 0 0 0-.333-.481 1.536 1.536 0 0 0-.497-.322 1.575 1.575 0 0 0-.587-.112z" fill="#1F2937"/>
    <path fill-rule="evenodd" clip-rule="evenodd" d="M10.748 5.952a1.551 1.551 0 0 0-.838.23c-.25.155-.448.377-.569.64A6.318 6.318 0 0 0 3.9 6.355a6.144 6.144 0 0 0-2.31 1.543A5.893 5.893 0 0 0 .23 10.276a5.762 5.762 0 0 0-.123 2.716 5.853 5.853 0 0 0 1.137 2.484 6.096 6.096 0 0 0 2.161 1.735 6.299 6.299 0 0 0 2.732.62 6.163 6.163 0 0 0 3.2-.88c.142.315.391.572.707.73.315.156.676.202 1.023.13.346-.073.656-.26.877-.528.22-.268.338-.603.333-.946V7.436c0-.394-.16-.77-.448-1.049a1.557 1.557 0 0 0-1.081-.435zm-1.606 5.92v.019a2.83 2.83 0 0 1-.207 1.135c-.147.36-.367.69-.647.968-.28.277-.615.498-.984.648a3.14 3.14 0 0 1-2.812-.234 3.004 3.004 0 0 1-1.133-1.243 2.889 2.889 0 0 1-.268-1.639c.073-.56.31-1.088.68-1.522a3.073 3.073 0 0 1 1.418-.932 3.163 3.163 0 0 1 1.712-.05 3.089 3.089 0 0 1 1.473.846c.398.412.667.925.775 1.48l-.007.524zM25.846 6.372a6.31 6.31 0 0 1 2.382-.42l-.006.006a6.237 6.237 0 0 1 4.26 1.705 5.854 5.854 0 0 1 1.831 4.099 5.836 5.836 0 0 1-1.633 4.175 6.218 6.218 0 0 1-4.175 1.894h-.277a6.31 6.31 0 0 1-2.382-.42 6.157 6.157 0 0 1-2.029-1.28 5.937 5.937 0 0 1-1.36-1.94 5.78 5.78 0 0 1 0-4.598 5.936 5.936 0 0 1 1.36-1.941 6.156 6.156 0 0 1 2.029-1.28zm2.39 8.486h.133l.008-.004a3.132 3.132 0 0 0 1.665-.566 2.984 2.984 0 0 0 1.068-1.36c.21-.546.251-1.139.117-1.706a2.95 2.95 0 0 0-.872-1.486 3.105 3.105 0 0 0-1.572-.775 3.16 3.16 0 0 0-1.753.193 3.046 3.046 0 0 0-1.354 1.096 2.905 2.905 0 0 0-.507 1.636c.01.785.337 1.535.91 2.09a3.16 3.16 0 0 0 2.158.882zM85.911 5.952a6.23 6.23 0 0 0-4.262 1.779 5.846 5.846 0 0 0-1.756 4.16c0 1.557.63 3.051 1.756 4.162a6.23 6.23 0 0 0 4.262 1.779h.28a6.218 6.218 0 0 0 4.174-1.895 5.836 5.836 0 0 0 1.633-4.176 5.854 5.854 0 0 0-1.832-4.098 6.236 6.236 0 0 0-4.261-1.705l.006-.006zm.011 8.906a3.137 3.137 0 0 1-2.15-.913 2.943 2.943 0 0 1-.868-2.113c.01-.788.34-1.54.918-2.094a3.142 3.142 0 0 1 2.171-.864c.814 0 1.594.31 2.172.864.578.554.908 1.306.917 2.094a2.943 2.943 0 0 1-.867 2.113 3.137 3.137 0 0 1-2.15.913h-.143z" fill="#1F2937"/>
    <path d="M75.858 8.921h-6.9a.779.779 0 0 0-.516.231.732.732 0 0 0-.21.512c0 .19.075.374.21.512s.32.221.517.231h4.597a3.945 3.945 0 0 1 1.495.257 3.85 3.85 0 0 1 1.274.799c.366.346.657.759.855 1.215a3.613 3.613 0 0 1 0 2.883 3.71 3.71 0 0 1-.855 1.215 3.847 3.847 0 0 1-1.274.799 3.945 3.945 0 0 1-1.495.256h-6.9a1.58 1.58 0 0 1-.604-.096 1.54 1.54 0 0 1-.517-.318 1.484 1.484 0 0 1-.347-.489 1.444 1.444 0 0 1 0-1.163c.08-.184.199-.35.347-.488a1.54 1.54 0 0 1 .517-.318 1.58 1.58 0 0 1 .605-.097h6.901a.779.779 0 0 0 .517-.23.732.732 0 0 0 .21-.513.732.732 0 0 0-.21-.512.779.779 0 0 0-.517-.23h-4.6a3.943 3.943 0 0 1-1.494-.257 3.848 3.848 0 0 1-1.275-.8 3.711 3.711 0 0 1-.854-1.214 3.613 3.613 0 0 1 0-2.883 3.71 3.71 0 0 1 .854-1.215 3.848 3.848 0 0 1 1.275-.8 3.944 3.944 0 0 1 1.495-.256h6.899a1.578 1.578 0 0 1 1.121.415 1.446 1.446 0 0 1 0 2.14 1.54 1.54 0 0 1-.517.318 1.579 1.579 0 0 1-.604.096z" fill="#1F2937"/>
    <path fill-rule="evenodd" clip-rule="evenodd" d="M43.214 5.952a6.31 6.31 0 0 0-2.382.42 6.157 6.157 0 0 0-2.03 1.28 5.936 5.936 0 0 0-1.358 1.94 5.781 5.781 0 0 0 0 4.599 5.936 5.936 0 0 0 1.359 1.94 6.156 6.156 0 0 0 2.029 1.28 6.31 6.31 0 0 0 2.382.42h.277a6.227 6.227 0 0 0 4.295-1.834 5.84 5.84 0 0 0 1.699-4.24 5.857 5.857 0 0 0-1.894-4.16 6.245 6.245 0 0 0-4.377-1.645zm.01 8.906a3.135 3.135 0 0 1-2.148-.912 2.94 2.94 0 0 1-.867-2.112c.01-.787.339-1.539.917-2.092a3.14 3.14 0 0 1 2.17-.864c.813 0 1.593.31 2.17.864.578.553.908 1.305.917 2.092a2.94 2.94 0 0 1-.866 2.112 3.135 3.135 0 0 1-2.15.912h-.142z" fill="#1F2937"/>
</svg>
