<svg width="213" height="34" viewBox="0 0 213 34" fill="none" xmlns="http://www.w3.org/2000/svg">
<path d="M61.1812 24.9738C61.1805 25.0329 61.183 25.0919 61.1886 25.1507C61.2006 25.2766 61.227 25.3983 61.2659 25.5142C61.3556 25.7817 61.5158 26.0295 61.7446 26.2278C61.7667 26.2468 61.789 26.2651 61.8117 26.2827C62.0627 26.4782 62.3724 26.6019 62.71 26.6232C62.7444 26.6253 62.7789 26.6264 62.8134 26.6265H62.8128H62.814H62.8134C62.8287 26.6264 62.844 26.6262 62.8593 26.6258C63.1652 26.6175 63.4501 26.5251 63.6916 26.371C63.769 26.3217 63.8429 26.2653 63.9124 26.202C63.9651 26.1541 64.0147 26.1027 64.0608 26.0483L66.4971 23.2371L70.2854 26.268C70.5871 26.5087 70.9464 26.6263 71.3046 26.6264H71.304H71.3052H71.3046C71.7838 26.6262 72.2582 26.4165 72.5808 26.0134C73.1442 25.3093 73.0302 24.2815 72.3261 23.718L68.6378 20.767L72.5405 16.2639C73.1304 15.5829 73.0578 14.5516 72.3757 13.9605C71.6947 13.3693 70.6634 13.4431 70.0722 14.1252L64.4468 20.6163V8.66103C64.4468 7.75993 63.7162 7.02823 62.814 7.02823C61.9117 7.02823 61.1812 7.75878 61.1812 8.66103V24.9738Z" fill="#7C3AED"/>
<path d="M23.9448 26.6264C23.0426 26.6264 22.312 25.8947 22.312 24.9936V8.66103C22.312 7.75878 23.0426 7.02823 23.9448 7.02823C24.8471 7.02823 25.5776 7.75993 25.5776 8.66103V24.9936C25.5776 25.8959 24.8471 26.6264 23.9448 26.6264Z" fill="#7C3AED"/>
<path d="M16.4319 26.623C15.767 26.623 15.1943 26.2254 14.9397 25.655C13.9291 26.2853 12.7584 26.623 11.5323 26.623C7.93028 26.623 5 23.6927 5 20.0895C5 16.4862 7.93028 13.5571 11.5323 13.5571C12.7757 13.5571 13.9464 13.904 14.9443 14.5147C15.2024 13.9454 15.7774 13.549 16.4423 13.5571C17.3399 13.5629 18.0647 14.2923 18.0647 15.1899V24.989C18.0647 25.8913 17.3341 26.6218 16.4319 26.6218V26.623ZM11.5323 16.8239C9.73131 16.8239 8.2656 18.2896 8.2656 20.0906C8.2656 21.8916 9.73131 23.3574 11.5323 23.3574C13.3334 23.3574 14.7334 21.9228 14.7334 20.0906C14.7334 20.0837 14.7334 20.0756 14.7334 20.0687L14.7415 19.4845C14.4534 17.9404 13.1098 16.8239 11.5323 16.8239Z" fill="#7C3AED"/>
<path d="M52.0354 26.623C48.4333 26.623 45.5031 23.6927 45.5031 20.0906C45.5031 16.4885 48.4333 13.5583 52.0354 13.5583C55.6375 13.5583 58.5678 16.4885 58.5678 20.0906C58.5678 21.7707 57.9236 23.3712 56.754 24.5961C55.5845 25.821 54.0162 26.5388 52.3373 26.616H52.3304C52.3304 26.616 52.1576 26.623 52.0343 26.623H52.0354ZM52.0354 16.8239C50.2344 16.8239 48.7687 18.2896 48.7687 20.0906C48.7687 21.8916 50.2344 23.3574 52.0354 23.3574C52.0827 23.3574 52.1414 23.3551 52.176 23.3539C52.1794 23.3539 52.1829 23.3539 52.1864 23.3539C53.9044 23.2744 55.301 21.811 55.301 20.0906C55.301 18.3702 53.8053 16.8239 52.0343 16.8239H52.0354Z" fill="#7C3AED"/>
<path d="M36.0301 26.623C32.428 26.623 29.4977 23.6927 29.4977 20.0906C29.4977 16.4885 32.428 13.5583 36.0301 13.5583C39.6321 13.5583 42.5624 16.4885 42.5624 20.0906C42.5624 21.7707 41.9183 23.3712 40.7487 24.5961C39.5791 25.821 38.0109 26.5388 36.332 26.616H36.3251C36.3251 26.616 36.1522 26.623 36.0289 26.623H36.0301ZM36.0301 16.8239C34.259 16.8239 32.7633 18.3195 32.7633 20.0906C32.7633 21.8617 34.259 23.3574 36.0301 23.3574C36.0773 23.3574 36.1361 23.3551 36.1707 23.3539C36.1741 23.3539 36.1776 23.3539 36.181 23.3539C37.8991 23.2744 39.2957 21.811 39.2957 20.0906C39.2957 18.3702 37.83 16.8239 36.0289 16.8239H36.0301Z" fill="#7C3AED"/>
<path d="M97.7641 26.623C94.162 26.623 91.2318 23.6927 91.2318 20.0906C91.2318 16.4885 94.162 13.5583 97.7641 13.5583C101.366 13.5583 104.296 16.4885 104.296 20.0906C104.296 21.7707 103.652 23.3712 102.483 24.5961C101.313 25.821 99.7449 26.5388 98.066 26.616H98.0591C98.0591 26.616 97.8863 26.623 97.763 26.623H97.7641ZM97.7641 16.8239C95.993 16.8239 94.4974 18.3195 94.4974 20.0906C94.4974 21.8617 95.993 23.3574 97.7641 23.3574C97.8114 23.3574 97.8701 23.3551 97.9047 23.3539C97.9082 23.3539 97.9116 23.3539 97.9151 23.3539C99.6331 23.2744 101.03 21.811 101.03 20.0906C101.03 18.3702 99.564 16.8239 97.763 16.8239H97.7641Z" fill="#7C3AED"/>
<path d="M84.5358 26.623H77.1865C76.2842 26.623 75.5537 25.8913 75.5537 24.9902C75.5537 24.0891 76.2842 23.3574 77.1865 23.3574H84.5358C84.9864 23.3574 85.3528 22.9909 85.3528 22.5404C85.3528 22.0898 84.9864 21.7234 84.5358 21.7234H79.6363C77.3847 21.7234 75.5537 19.8913 75.5537 17.6408C75.5537 15.3904 77.3847 13.5583 79.6363 13.5583H86.9856C87.8878 13.5583 88.6184 14.29 88.6184 15.1911C88.6184 16.0922 87.8878 16.8239 86.9856 16.8239H79.6363C79.1857 16.8239 78.8193 17.1903 78.8193 17.6408C78.8193 18.0914 79.1857 18.4578 79.6363 18.4578H84.5358C86.7874 18.4578 88.6184 20.29 88.6184 22.5404C88.6184 24.7908 86.7874 26.623 84.5358 26.623Z" fill="#7C3AED"/>
<path d="M111.913 31.8955C111.055 31.6167 110.587 30.695 110.865 29.838L119.473 3.34585C119.752 2.48777 120.672 2.01872 121.53 2.29753C122.389 2.57634 122.857 3.49799 122.579 4.35498L113.971 30.8471C113.692 31.7052 112.772 32.1743 111.913 31.8955Z" fill="#D1D5DB"/>
<path d="M131.986 26.6261C131.084 26.6261 130.353 25.8944 130.353 24.9933V15.1942C130.353 14.292 131.085 13.5614 131.986 13.5614C132.887 13.5614 133.619 14.2931 133.619 15.1942V24.9933C133.619 25.8956 132.887 26.6261 131.986 26.6261Z" fill="#2DD4BF"/>
<path d="M131.986 10.2947C131.933 10.2947 131.879 10.2924 131.826 10.2866C131.773 10.2809 131.72 10.2728 131.667 10.2624C131.615 10.2521 131.563 10.2394 131.512 10.2232C131.462 10.2083 131.411 10.1898 131.361 10.1691C131.312 10.1495 131.263 10.1265 131.217 10.1011C131.17 10.0769 131.124 10.0493 131.079 10.0193C131.035 9.99048 130.991 9.95822 130.95 9.9248C130.908 9.89023 130.869 9.85451 130.831 9.81649C130.793 9.77846 130.757 9.73813 130.723 9.69665C130.689 9.65632 130.657 9.61253 130.628 9.56759C130.598 9.52381 130.571 9.47771 130.545 9.43047C130.521 9.38438 130.498 9.33483 130.477 9.28643C130.458 9.23688 130.439 9.18618 130.423 9.13548C130.408 9.08478 130.396 9.03293 130.384 8.98108C130.374 8.92807 130.366 8.87506 130.361 8.82206C130.355 8.76905 130.353 8.7149 130.353 8.66189C130.353 8.23093 130.527 7.81035 130.831 7.50729C130.869 7.46927 130.908 7.4324 130.95 7.39898C130.991 7.36556 131.035 7.3333 131.079 7.30334C131.124 7.27453 131.17 7.24688 131.217 7.22153C131.263 7.19733 131.312 7.17428 131.361 7.15354C131.411 7.1328 131.462 7.11551 131.512 7.09938C131.563 7.0844 131.615 7.07058 131.667 7.0602C131.72 7.04983 131.773 7.04177 131.826 7.03601C131.932 7.02564 132.04 7.02564 132.146 7.03601C132.199 7.04177 132.253 7.04983 132.305 7.0602C132.357 7.07058 132.409 7.0844 132.459 7.09938C132.51 7.11551 132.561 7.1328 132.61 7.15354C132.66 7.17428 132.708 7.19733 132.754 7.22153C132.802 7.24688 132.848 7.27453 132.893 7.30334C132.936 7.3333 132.98 7.36556 133.022 7.39898C133.063 7.4324 133.102 7.46927 133.14 7.50729C133.178 7.54417 133.214 7.5845 133.249 7.62598C133.282 7.66746 133.314 7.7101 133.343 7.75504C133.373 7.79882 133.401 7.84492 133.425 7.89216C133.45 7.9394 133.473 7.9878 133.494 8.03735C133.514 8.08574 133.532 8.13645 133.548 8.18715C133.563 8.23785 133.577 8.29085 133.588 8.34271C133.598 8.39456 133.606 8.44756 133.611 8.50057C133.616 8.55473 133.619 8.60773 133.619 8.66189C133.619 8.71605 133.616 8.76905 133.611 8.82206C133.606 8.87506 133.598 8.92807 133.588 8.98108C133.577 9.03293 133.563 9.08478 133.548 9.13548C133.532 9.18618 133.514 9.23688 133.494 9.28643C133.473 9.33483 133.45 9.38438 133.425 9.43047C133.401 9.47771 133.373 9.52381 133.343 9.56759C133.314 9.61253 133.282 9.65632 133.249 9.69665C133.214 9.73813 133.178 9.77846 133.14 9.81649C133.102 9.85451 133.063 9.89023 133.022 9.9248C132.98 9.95822 132.936 9.99048 132.893 10.0193C132.848 10.0493 132.802 10.0769 132.754 10.1011C132.708 10.1265 132.66 10.1495 132.61 10.1691C132.561 10.1898 132.511 10.2083 132.459 10.2232C132.409 10.2394 132.357 10.2521 132.305 10.2624C132.253 10.2728 132.199 10.2809 132.146 10.2866C132.093 10.2924 132.039 10.2947 131.986 10.2947Z" fill="#2DD4BF"/>
<path d="M182.047 13.4465C181.145 13.4465 180.415 14.1771 180.415 15.0793V20.0929C180.415 21.864 178.919 23.3597 177.148 23.3597C175.377 23.3597 173.881 21.894 173.881 20.0929V15.1934C173.881 14.2911 173.151 13.5606 172.248 13.5606C171.346 13.5606 170.616 14.2911 170.616 15.1934V20.0929C170.616 23.695 173.546 26.6253 177.148 26.6253C178.425 26.6253 179.617 26.2577 180.624 25.6216C180.904 26.1183 181.437 26.4524 182.047 26.4524C182.95 26.4524 183.68 25.7219 183.68 24.8196V15.0793C183.68 14.1771 182.95 13.4465 182.047 13.4465Z" fill="#2DD4BF"/>
<path d="M163.278 26.6227H156.389C155.487 26.6227 154.756 25.891 154.756 24.9899C154.756 24.0888 155.487 23.3571 156.389 23.3571H163.278C163.728 23.3571 164.095 22.9907 164.095 22.5401C164.095 22.0896 163.728 21.7232 163.278 21.7232H158.378C156.127 21.7232 154.296 19.891 154.296 17.6406C154.296 15.3902 156.127 13.558 158.378 13.558H165.267C166.169 13.558 166.899 14.2897 166.899 15.1908C166.899 16.0919 166.169 16.8236 165.267 16.8236H158.378C157.928 16.8236 157.561 17.1901 157.561 17.6406C157.561 18.0912 157.928 18.4576 158.378 18.4576H163.278C165.529 18.4576 167.36 20.2897 167.36 22.5401C167.36 24.7906 165.529 26.6227 163.278 26.6227Z" fill="#2DD4BF"/>
<path d="M146.958 26.6227H140.069C139.167 26.6227 138.436 25.891 138.436 24.9899C138.436 24.0888 139.167 23.3571 140.069 23.3571H146.958C147.408 23.3571 147.775 22.9907 147.775 22.5401C147.775 22.0896 147.408 21.7232 146.958 21.7232H142.058C139.807 21.7232 137.976 19.891 137.976 17.6406C137.976 15.3902 139.807 13.558 142.058 13.558H148.947C149.849 13.558 150.579 14.2897 150.579 15.1908C150.579 16.0919 149.849 16.8236 148.947 16.8236H142.058C141.608 16.8236 141.241 17.1901 141.241 17.6406C141.241 18.0912 141.608 18.4576 142.058 18.4576H146.958C149.209 18.4576 151.04 20.2897 151.04 22.5401C151.04 24.7906 149.209 26.6227 146.958 26.6227Z" fill="#2DD4BF"/>
<path d="M199.614 20.5409C199.892 20.2378 200.03 19.8322 199.994 19.422C199.701 15.9905 197.049 13.5937 193.546 13.5937H193.418C189.732 13.5937 186.951 16.3696 186.942 20.0535L186.936 20.421C186.936 20.4314 186.936 20.4406 186.936 20.451C186.936 24.2639 189.598 26.9269 193.411 26.9269H193.539C197.274 26.9269 198.562 24.6822 198.697 24.4253C199.075 23.7062 198.798 22.8178 198.079 22.4399C197.36 22.0619 196.472 22.3385 196.094 23.0575C196.089 23.0667 195.484 23.9874 193.539 23.9874H193.411C191.398 23.9874 190.123 22.895 189.907 21.0329L198.533 21.0168C198.945 21.0168 199.336 20.8428 199.614 20.5397V20.5409ZM190.417 18.0934C191.019 17.1255 192.092 16.5344 193.418 16.5344H193.546C194.525 16.5344 195.373 16.8305 195.997 17.3917C196.221 17.5922 196.412 17.8238 196.569 18.0819L190.415 18.0934H190.417Z" fill="#2DD4BF"/>
</svg>
