<svg
    style="display: none;"
    id="icons"
    xmlns="http://www.w3.org/2000/svg"
>
    <symbol id="icons-arrow-left" viewBox="0 0 18 18">
        <path
            fill-rule="evenodd"
            clip-rule="evenodd"
            d="M8.736 15.037a.9.9 0 0 1-1.273 0l-5.4-5.4a.9.9 0 0 1 0-1.273l5.4-5.4a.9.9 0 0 1 1.273 1.273L4.873 8.1H15.3a.9.9 0 1 1 0 1.8H4.873l3.863 3.864a.9.9 0 0 1 0 1.273z"
        />
    </symbol>
    <symbol id="icons-arrow-right">
        <path
            fill-rule="evenodd"
            clip-rule="evenodd"
            d="M7.243 4.347a1 1 0 0 0 .104 1.41l7.134 6.16-7.144 6.335a1 1 0 0 0 1.326 1.496l8-7.093a1 1 0 0 0-.01-1.505l-8-6.907a1 1 0 0 0-1.41.104z"
            fill="#9CA3AF"
        />
    </symbol>
    <symbol id="icons-icon-curate-it" viewBox="0 0 14 14">
        <path
            fill-rule="evenodd"
            clip-rule="evenodd"
            d="m13.062 7.45.2.262-.008.015a.82.82 0 0 1-.278 1.216l-.293.156a.84.84 0 0 0-.42.883l.064.32c.092.49-.279.953-.792.981l-.336.022a.85.85 0 0 0-.777.611l-.086.313a.853.853 0 0 1-1.149.555l-.314-.12a.86.86 0 0 0-.97.22l-.222.249a.868.868 0 0 1-1.277.007l-.221-.242a.857.857 0 0 0-.97-.213l-.307.128a.855.855 0 0 1-1.156-.534l-.093-.313a.848.848 0 0 0-.785-.604l-.335-.015a.84.84 0 0 1-.807-.974l.057-.327a.825.825 0 0 0-.435-.875l-.3-.157A.822.822 0 0 1 .76 7.798l.192-.27a.82.82 0 0 0-.007-.975l-.2-.263a.838.838 0 0 1 .279-1.23l.292-.157a.84.84 0 0 0 .421-.882l-.064-.32c-.093-.491.278-.954.792-.982l.336-.022a.85.85 0 0 0 .777-.611l.086-.313a.853.853 0 0 1 1.149-.555l.314.12a.86.86 0 0 0 .97-.22L6.318.87A.87.87 0 0 1 7.603.862l.221.242c.243.27.635.356.97.213l.307-.128a.855.855 0 0 1 1.156.534l.093.313c.1.348.421.59.785.605l.335.014a.84.84 0 0 1 .807.974l-.057.328a.825.825 0 0 0 .435.874l.3.157c.45.235.592.804.292 1.216l-.192.27a.82.82 0 0 0 .007.975zM5.903 9.576c.342.143.72.215 1.137.215.383 0 .728-.058 1.035-.174.314-.123.584-.286.81-.49.232-.205.406-.44.522-.706l-1.106-.327a1.019 1.019 0 0 1-.277.378c-.13.109-.284.198-.461.266-.17.061-.349.092-.533.092-.3 0-.574-.079-.82-.235a1.782 1.782 0 0 1-.573-.655 2.008 2.008 0 0 1-.215-.93c0-.355.068-.665.204-.93.144-.274.335-.485.574-.635.246-.157.52-.235.82-.235a1.4 1.4 0 0 1 .727.194c.226.123.4.297.523.522l1.096-.348a2.184 2.184 0 0 0-.902-.961c-.403-.246-.877-.368-1.424-.368-.567 0-1.058.126-1.475.378-.41.252-.73.586-.963 1.002a2.85 2.85 0 0 0-.338 1.38c0 .376.065.73.194 1.064.137.334.328.63.574.89.246.259.536.463.871.613z"
        />
    </symbol>
    <symbol id="icons-icon-fill-camera" viewBox="0 0 18 18">
        <path d="M14.194 5.365h-2.007l-.478-1.31a.464.464 0 0 0-.173-.221.48.48 0 0 0-.272-.084H6.736a.47.47 0 0 0-.444.306l-.48 1.31H3.807c-.653 0-1.181.516-1.181 1.153v6.577c0 .638.528 1.154 1.18 1.154h10.39c.652 0 1.18-.516 1.18-1.154V6.52c0-.637-.528-1.154-1.18-1.154zM9 11.942c-1.305 0-2.361-1.032-2.361-2.307S7.695 7.327 9 7.327c1.305 0 2.361 1.033 2.361 2.308S10.305 11.942 9 11.942zM7.583 9.635c0 .367.15.719.415.979.266.26.626.405 1.002.405s.736-.146 1.002-.405c.265-.26.415-.612.415-.98 0-.367-.15-.719-.415-.978A1.433 1.433 0 0 0 9 8.25c-.376 0-.736.146-1.002.406-.265.26-.415.611-.415.979z" />
    </symbol>
    <symbol id="icons-icon-fire" viewBox="0 0 21 20">
        <path d="M10.562.891a.671.671 0 0 0-.75.143.76.76 0 0 0-.201.71c.097.424.148.865.148 1.318 0 1.034-.267 1.759-.728 2.36-.469.61-1.147 1.107-2.003 1.668a.245.245 0 0 0-.037.03l-.104.102c-1.837 1.155-3.053 3.167-3.053 5.455 0 3.585 2.984 6.49 6.666 6.49 3.682 0 6.667-2.905 6.667-6.49a6.326 6.326 0 0 0-.715-2.927.25.25 0 0 0-.407-.048l-.205.233c-.868.986-1.568 1.783-3.003 2.138-.06.015-.099.004-.126-.012a.236.236 0 0 1-.09-.12.388.388 0 0 1 .073-.398c.768-.81 1.313-1.91 1.508-3.474.365-2.93-1.003-6.052-3.64-7.178z" />
    </symbol>
    <symbol id="icons-icon-line-alert" viewBox="0 0 49 48">
        <path
            fill-rule="evenodd"
            clip-rule="evenodd"
            d="M24.5 42c9.941 0 18-8.059 18-18s-8.059-18-18-18-18 8.059-18 18 8.059 18 18 18zm0 4c12.15 0 22-9.85 22-22s-9.85-22-22-22-22 9.85-22 22 9.85 22 22 22z"
        />
        <path d="M22.333 33.667a2.167 2.167 0 1 1 4.334 0 2.167 2.167 0 0 1-4.334 0zm0-18.334a2.167 2.167 0 1 1 4.334 0V26a2.167 2.167 0 1 1-4.334 0V15.333z" />
    </symbol>
    <symbol id="icons-icon-line-arrow-down" viewBox="0 0 48 48">
        <path
            fill-rule="evenodd"
            clip-rule="evenodd"
            d="M39.307 17.486a2 2 0 0 0-2.82.207l-12.32 14.27-12.67-14.29a2 2 0 0 0-2.993 2.654l14.186 16a2 2 0 0 0 3.01-.02l13.814-16a2 2 0 0 0-.207-2.82z"
        />
    </symbol>
    <symbol id="icons-icon-line-arrow-left" viewBox="0 0 48 48">
        <path
            fill-rule="evenodd"
            clip-rule="evenodd"
            d="M31.514 8.693a2 2 0 0 1-.207 2.82l-14.27 12.32 14.29 12.67a2 2 0 0 1-2.654 2.993l-16-14.186a2 2 0 0 1 .02-3.01l16-13.814a2 2 0 0 1 2.82.207z"
        />
    </symbol>
    <symbol id="icons-icon-line-arrow-right" viewBox="0 0 47 47">
        <path
            fill-rule="evenodd"
            clip-rule="evenodd"
            d="M14.486 8.693a2 2 0 0 0 .207 2.82l14.27 12.32-14.29 12.67a2 2 0 0 0 2.654 2.993l16-14.186a2 2 0 0 0-.02-3.01l-16-13.814a2 2 0 0 0-2.82.207z"
        />
    </symbol>
    <symbol id="icons-icon-line-arrow-up" viewBox="0 0 48 48">
        <path
            fill-rule="evenodd"
            clip-rule="evenodd"
            d="M8.693 34.514a2 2 0 0 0 2.82-.207l12.32-14.27 12.67 14.29a2 2 0 0 0 2.993-2.654l-14.186-16a2 2 0 0 0-3.01.02l-13.814 16a2 2 0 0 0 .207 2.82z"
        />
    </symbol>
    <symbol id="icons-icon-line-article-back" viewBox="0 0 48 48">
        <path d="M12.5038 32.5774H23.0713C24.6888 32.5774 26 33.8859 26 35.5C26 37.1141 24.6888 38.4226 23.0713 38.4226H12.5038L15.0974 41.0109C16.2411 42.1522 16.2411 44.0027 15.0974 45.144C13.9537 46.2853 12.0994 46.2853 10.9557 45.144L2.50089 36.7068C1.83304 36.0403 1.83304 34.9597 2.50089 34.2932L10.9557 25.856C12.0994 24.7147 13.9537 24.7147 15.0974 25.856C16.2411 26.9973 16.2411 28.8478 15.0974 29.9891L12.5038 32.5774Z" />
        <path d="M14.5385 7C13.5452 7 13 7.7379 13 8.33333V19C13 20.1046 12.1046 21 11 21C9.89543 21 9 20.1046 9 19V8.33333C9 5.38782 11.4797 3 14.5385 3H39.4615C42.5203 3 45 5.38781 45 8.33333V37.6667C45 40.6122 42.5203 43 39.4615 43H33C31.8954 43 31 42.1046 31 41C31 39.8954 31.8954 39 33 39H39.4615C40.4548 39 41 38.2621 41 37.6667V8.33333C41 7.7379 40.4548 7 39.4615 7H14.5385Z" />
        <path d="M18.6923 16.3333C18.6923 15.597 19.3122 15 20.0769 15H33.9231C34.6878 15 35.3077 15.597 35.3077 16.3333C35.3077 17.0697 34.6878 17.6667 33.9231 17.6667H20.0769C19.3122 17.6667 18.6923 17.0697 18.6923 16.3333Z" />
        <path d="M18.6923 23.3333C18.6923 22.597 19.3122 22 20.0769 22H33.9231C34.6878 22 35.3077 22.597 35.3077 23.3333C35.3077 24.0697 34.6878 24.6667 33.9231 24.6667H20.0769C19.3122 24.6667 18.6923 24.0697 18.6923 23.3333Z" />
        <path d="M26.6923 30.6667C26.6923 29.9303 27.3122 29.3333 28.0769 29.3333H33.9231C34.6878 29.3333 35.3077 29.9303 35.3077 30.6667C35.3077 31.403 34.6878 32 33.9231 32H28.0769C27.3122 32 26.6923 31.403 26.6923 30.6667Z" />
    </symbol>
    <symbol id="icons-icon-line-article-top" viewBox="0 0 48 48">
        <path
            fill-rule="evenodd"
            clip-rule="evenodd"
            d="M38 11.5C39.1046 11.5 40 10.6046 40 9.5C40 8.39543 39.1046 7.5 38 7.5H9C7.89543 7.5 7 8.39543 7 9.5C7 10.6046 7.89543 11.5 9 11.5H22.66L9.74001 24.42C8.95576 25.2042 8.95576 26.4758 9.74001 27.26C10.5243 28.0442 11.7958 28.0442 12.58 27.26L22.16 17.68L22.16 39.68C22.16 40.7846 23.0554 41.68 24.16 41.68C25.2646 41.68 26.16 40.7846 26.16 39.68L26.16 17.68L35.74 27.26C36.5243 28.0442 37.7958 28.0442 38.58 27.26C39.3643 26.4758 39.3643 25.2042 38.58 24.42L25.66 11.5H38Z"
        />
    </symbol>
    <symbol id="icons-icon-line-article" viewBox="0 0 20 20">
        <path
            fill-rule="evenodd"
            clip-rule="evenodd"
            d="M4.167 3.889c0-.248.227-.556.64-.556h10.385c.414 0 .641.308.641.556V16.11c0 .248-.227.556-.64.556H4.807c-.414 0-.641-.308-.641-.556V3.89zm-1.667 0c0-1.227 1.033-2.222 2.308-2.222h10.384c1.275 0 2.308.995 2.308 2.222V16.11c0 1.227-1.033 2.222-2.308 2.222H4.808c-1.275 0-2.308-.995-2.308-2.222V3.89zm4.615 2.778a.567.567 0 0 0-.577.555c0 .307.259.556.577.556h5.77a.567.567 0 0 0 .576-.556.567.567 0 0 0-.576-.555h-5.77zm0 2.963a.567.567 0 0 0-.577.555c0 .307.259.556.577.556h5.77a.567.567 0 0 0 .576-.556.567.567 0 0 0-.576-.555h-5.77zm-.577 3.148c0-.307.259-.556.577-.556h3.077c.319 0 .577.249.577.556a.567.567 0 0 1-.577.555H7.115a.567.567 0 0 1-.577-.555z"
        />
    </symbol>
    <symbol id="icons-icon-line-bookmark" viewBox="0 0 14 15">
        <path
            fill-rule="evenodd"
            clip-rule="evenodd"
            d="M6.394 9.182c.367-.26.845-.26 1.212 0l2.675 1.898V3.417H3.72v7.663l2.675-1.898zM3.482 12.65c-.363.257-.857-.01-.857-.466V2.621c0-.205.18-.371.4-.371h7.95c.22 0 .4.166.4.371v9.563c0 .455-.494.723-.857.466L7 10.153 3.482 12.65z"
        />
    </symbol>
    <symbol id="icons-icon-line-check" viewBox="0 0 48 48">
        <path
            fill-rule="evenodd"
            clip-rule="evenodd"
            d="M41.288 10.47a2 2 0 0 1 .242 2.819l-19.375 23a2 2 0 0 1-2.937.133l-11.625-11.5a2 2 0 0 1 2.813-2.844l10.085 9.976 17.98-21.343a2 2 0 0 1 2.818-.24z"
        />
    </symbol>
    <symbol id="icons-icon-line-circle-arrow-right" viewBox="0 0 26 27">
        <path
            d="M25 13.5c0 6.627-5.373 12-12 12s-12-5.373-12-12 5.373-12 12-12 12 5.373 12 12z"
            stroke="#fff"
            stroke-width="2"
        />
        <path
            d="M14.834 12.78H5.85v1.435h8.998c-1.119 1.64-1.544 3.896-1.697 5.804 2.17-2.673 4.724-5.23 7.956-6.521-3.232-1.349-5.905-3.758-7.956-6.517.033 1.764.583 4.217 1.683 5.8z"
            fill="#fff"
        />
    </symbol>
    <symbol id="icons-icon-line-close" viewBox="0 0 47 47">
        <path
            fill-rule="evenodd"
            clip-rule="evenodd"
            d="M11.414 8.586a2 2 0 1 0-2.828 2.828L21.172 24 8.586 36.586a2 2 0 1 0 2.828 2.828L24 26.828l12.586 12.586a2 2 0 1 0 2.828-2.828L26.828 24l12.586-12.586a2 2 0 1 0-2.828-2.828L24 21.172 11.414 8.586z"
        />
    </symbol>
    <symbol id="icons-icon-line-coin" viewBox="0 0 16 16">
        <path
            fill-rule="evenodd"
            clip-rule="evenodd"
            d="M7 13.333c-2.698 0-5-2.322-5-5.333s2.302-5.334 5-5.334S12 4.99 12 8c0 3.01-2.302 5.333-5 5.333zM.667 8c0 3.682 2.835 6.666 6.333 6.666.112 0 .223-.003.333-.009v.01c2.667 0 8-.667 8-6.667s-5.333-6.667-8-6.667v.01A6.121 6.121 0 0 0 7 1.332C3.502 1.333.667 4.318.667 8zm12.647 2.889c-.38.635-.903 1.11-1.52 1.468A6.848 6.848 0 0 0 13.334 8c0-1.666-.58-3.189-1.54-4.357.617.358 1.14.832 1.52 1.468.4.67.686 1.592.686 2.889 0 1.296-.286 2.22-.686 2.889zm-6.23-5.556c-1.493 0-2.75 1.168-2.75 2.667 0 1.498 1.257 2.666 2.75 2.666.611 0 1.18-.194 1.64-.526a.667.667 0 1 0-.78-1.081c-.238.17-.535.274-.86.274-.809 0-1.417-.622-1.417-1.333s.608-1.333 1.416-1.334c.32.001.623.1.857.272a.667.667 0 1 0 .786-1.077 2.798 2.798 0 0 0-1.641-.528h-.002z"
            fill="#8B5CF6"
        />
    </symbol>
    <symbol id="icons-icon-line-date" viewBox="0 0 21 20">
        <path d="M6.894 1.25a.583.583 0 0 1 .584.583v.674h6.264v-.666a.584.584 0 0 1 1.167 0v.666h2.258a1.667 1.667 0 0 1 1.667 1.666v11.661a1.667 1.667 0 0 1-1.667 1.666H3.834a1.667 1.667 0 0 1-1.667-1.666V4.174a1.667 1.667 0 0 1 1.667-1.667H6.31v-.675a.583.583 0 0 1 .583-.582zm-3.56 4.368v10.216a.5.5 0 0 0 .5.5h13.333a.5.5 0 0 0 .5-.5V5.63L3.334 5.618z" />
        <path
            fill-rule="evenodd"
            clip-rule="evenodd"
            d="M14.839 8.542a.833.833 0 0 0-1.177.07l-3.085 3.474-3.176-3.483A.833.833 0 0 0 6.17 9.726l3.8 4.167a.834.834 0 0 0 1.239-.008l3.7-4.167a.833.833 0 0 0-.07-1.176z"
            fill="#8B5CF6"
        />
    </symbol>
    <symbol id="icons-icon-line-delete" viewBox="0 0 20 20">
        <path
            fill-rule="evenodd"
            clip-rule="evenodd"
            d="M8.316.832c-.918 0-1.663.745-1.663 1.663v.832H2.91a.832.832 0 1 0 0 1.663h.415v12.474c0 .919.745 1.663 1.664 1.663h9.979c.918 0 1.663-.744 1.663-1.663V4.99h.416a.832.832 0 1 0 0-1.663h-3.742v-.832c0-.918-.745-1.663-1.663-1.663H8.316zm3.326 2.495v-.832H8.316v.832h3.326zM4.99 17.464V4.99h9.979v12.474h-9.98zm6.652-9.563c.46 0 .832.372.832.831v4.99a.832.832 0 1 1-1.663 0v-4.99c0-.459.372-.831.832-.831zm-2.494.831a.832.832 0 1 0-1.663 0v4.99a.832.832 0 1 0 1.663 0v-4.99z"
            fill="#6B7280"
        />
    </symbol>
    <symbol id="icons-icon-line-discovery-1" viewBox="0 0 21 20">
        <path
            fill-rule="evenodd"
            clip-rule="evenodd"
            d="M3.833 3.333H8V7.5H3.833V3.333zm-1.666 0c0-.92.746-1.666 1.666-1.666H8c.92 0 1.667.746 1.667 1.666V7.5c0 .92-.747 1.667-1.667 1.667H3.833c-.92 0-1.666-.747-1.666-1.667V3.333zM3.833 12.5H8v4.167H3.833V12.5zm-1.666 0c0-.92.746-1.667 1.666-1.667H8c.92 0 1.667.746 1.667 1.667v4.167c0 .92-.747 1.666-1.667 1.666H3.833c-.92 0-1.666-.746-1.666-1.666V12.5zm15-9.167H13V7.5h4.167V3.333zM13 1.667c-.92 0-1.667.746-1.667 1.666V7.5c0 .92.746 1.667 1.667 1.667h4.167c.92 0 1.666-.747 1.666-1.667V3.333c0-.92-.746-1.666-1.666-1.666H13zM13 12.5h4.167v4.167H13V12.5zm-1.667 0c0-.92.746-1.667 1.667-1.667h4.167c.92 0 1.666.746 1.666 1.667v4.167c0 .92-.746 1.666-1.666 1.666H13c-.92 0-1.667-.746-1.667-1.666V12.5z"
        />
    </symbol>
    <symbol id="icons-icon-line-graph" viewBox="0 0 21 20">
        <path
            fill-rule="evenodd"
            clip-rule="evenodd"
            d="M3 2.5h1.667v13.235H18V17.5H3v-15z"
        />
        <path d="M6.333 14.167v-8.75h2.084v8.75H6.333zm4.167 0V3.333h2.083v10.834H10.5zm4.167 0V9.792h2.083v4.375h-2.083z" />
    </symbol>
    <symbol id="icons-icon-line-hamburger">
        <path
            fill-rule="evenodd"
            clip-rule="evenodd"
            d="M3.75 6.5a1 1 0 0 1 1-1h16a1 1 0 1 1 0 2h-16a1 1 0 0 1-1-1zM3.75 12.5a1 1 0 0 1 1-1h16a1 1 0 1 1 0 2h-16a1 1 0 0 1-1-1zM3.75 18.5a1 1 0 0 1 1-1h16a1 1 0 1 1 0 2h-16a1 1 0 0 1-1-1z"
            fill="#4B5563"
        />
    </symbol>
    <symbol id="icons-icon-line-job" viewBox="0 0 16 17">
        <path
            fill-rule="evenodd"
            clip-rule="evenodd"
            d="M5.667 1.833c-.737 0-1.334.597-1.334 1.333V4.5H2a.667.667 0 0 0-.667.666V14.5c0 .368.299.666.667.666h12a.667.667 0 0 0 .667-.666V5.166A.667.667 0 0 0 14 4.5h-2.333V3.166c0-.736-.597-1.333-1.334-1.333H5.667zM10.333 4.5V3.166H5.667V4.5h4.666zM2.667 5.833v3h4V8.25c0-.23.149-.417.333-.417h2c.184 0 .333.187.333.417v.583h4v-3H2.667zm0 4.333h4v.584c0 .23.149.416.333.416h2c.184 0 .333-.186.333-.416v-.584h4v3.667H2.667v-3.667z"
        />
    </symbol>
    <symbol id="icons-icon-line-kebab" viewBox="0 0 47 47">
        <path
            fill-rule="evenodd"
            clip-rule="evenodd"
            d="M28.1 9a4 4 0 1 1-8 0 4 4 0 0 1 8 0zm0 15a4 4 0 1 1-8 0 4 4 0 0 1 8 0zm-4 19a4 4 0 1 0 0-8 4 4 0 0 0 0 8z"
        />
    </symbol>
    <symbol id="icons-icon-line-link" viewBox="0 0 49 48">
        <path
            fill-rule="evenodd"
            clip-rule="evenodd"
            d="M32.75 5a10.25 10.25 0 0 0-7.248 3.002l-2.916 2.916a2 2 0 0 0 2.828 2.829l2.917-2.916a6.25 6.25 0 1 1 8.838 8.838l-5.834 5.833a6.25 6.25 0 0 1-8.837 0 2 2 0 1 0-2.828 2.829 10.25 10.25 0 0 0 14.493 0l5.835-5.833A10.25 10.25 0 0 0 32.75 5zm-16.5 38.332a10.25 10.25 0 0 0 7.248-3.003l2.916-2.916a2 2 0 1 0-2.828-2.828L20.669 37.5a6.25 6.25 0 1 1-8.838-8.839l5.834-5.832a6.25 6.25 0 0 1 8.837 0A2 2 0 0 0 29.33 20a10.25 10.25 0 0 0-14.493 0l-5.835 5.834a10.25 10.25 0 0 0 7.248 17.498z"
        />
    </symbol>
    <symbol id="icons-icon-line-meatballs" viewBox="0 0 47 47">
        <path
            fill-rule="evenodd"
            clip-rule="evenodd"
            d="M5.1 24a4 4 0 1 0 8 0 4 4 0 0 0-8 0zm19 4a4 4 0 1 1 0-8 4 4 0 0 1 0 8zm15 0a4 4 0 1 1 0-8 4 4 0 0 1 0 8z"
        />
    </symbol>
    <symbol id="icons-icon-line-milk-1" viewBox="0 0 47 47">
        <path
            fill-rule="evenodd"
            clip-rule="evenodd"
            d="M15.172 3.172A4 4 0 0 1 18 2h12a4 4 0 0 1 4 4v2.864l.005.006C36.9 12.115 40 15.592 40 21.172v18.295c0 1.752-.717 3.42-1.973 4.64A6.737 6.737 0 0 1 33.333 46H14.667a6.737 6.737 0 0 1-4.694-1.893A6.469 6.469 0 0 1 8 39.467V21.172c0-5.58 3.101-9.057 5.995-12.302L14 8.864V6a4 4 0 0 1 1.172-2.828zM16.565 12h14.87c2.73 3.09 4.552 5.45 4.565 9.136-1.658.822-3.003 1.162-4.137 1.244-1.35.099-2.544-.156-3.792-.598a31.779 31.779 0 0 1-1.956-.79l-.21-.09c-.613-.266-1.276-.553-1.959-.813C22.4 19.5 20.638 19 18.556 19c-2.793 0-4.937.656-6.536 1.519.203-3.34 1.97-5.605 4.545-8.519zM12 25.605v13.862c0 .653.266 1.29.76 1.77.496.482 1.181.763 1.907.763h18.666c.726 0 1.41-.28 1.907-.762.494-.48.76-1.118.76-1.771V25.494c-1.356.509-2.629.787-3.846.876-2.078.151-3.848-.26-5.42-.818a35.578 35.578 0 0 1-2.203-.887l-.207-.09c-.625-.27-1.206-.52-1.802-.748-1.296-.494-2.55-.827-3.966-.827-2.804 0-4.522.852-5.51 1.597-.504.38-.842.75-1.046 1.008zM30 6H18v2h12V6z"
        />
    </symbol>
    <symbol id="icons-icon-line-milk-2" viewBox="0 0 47 47">
        <path
            fill-rule="evenodd"
            clip-rule="evenodd"
            d="M14 10.387V9h20v1.048L29.737 19h-19.57l3.59-7.538c.16-.336.243-.703.243-1.075zM29 23H9v16.5h20V23zm4 16.5V23h6v16.5h-6zM34.168 19 36 15.152 37.832 19h-3.664zM12.5 5A2.5 2.5 0 0 0 10 7.5v2.548l-4.757 9.99A2.487 2.487 0 0 0 5 21.11v19.898C5 42.432 6.163 43.5 7.5 43.5h33c1.336 0 2.5-1.067 2.5-2.492V21.11c0-.385-.089-.748-.243-1.072L38 10.048V7.5A2.5 2.5 0 0 0 35.5 5h-23z"
        />
    </symbol>
    <symbol id="icons-icon-line-minus" viewBox="0 0 24 24">
        <path
            fill-rule="evenodd"
            clip-rule="evenodd"
            d="M2.5 12a1 1 0 0 1 1-1h17a1 1 0 1 1 0 2h-17a1 1 0 0 1-1-1z"
        />
    </symbol>
    <symbol id="icons-icon-line-new" viewBox="0 0 13 12">
        <circle cx="6.5" cy="6" r="5" fill="#EF4444" />
        <path
            d="M7.401 3.857v2.72h-.037l-1.868-2.72h-.782v4.286h.889V5.42h.031l1.882 2.723h.77V3.857H7.4z"
            fill="#fff"
        />
    </symbol>
    <symbol id="icons-icon-line-no-favicon" viewBox="0 0 16 16">
        <path d="M10.907 9.333C10.96 8.893 11 8.453 11 8c0-.453-.04-.893-.093-1.333h2.253c.107.426.173.873.173 1.333 0 .46-.066.907-.173 1.333h-2.253zm-1.18 3.707c.4-.74.706-1.54.92-2.373h1.966a5.353 5.353 0 0 1-2.886 2.373zM9.56 9.333H6.44A8.846 8.846 0 0 1 6.333 8c0-.453.04-.9.107-1.333h3.12c.06.433.107.88.107 1.333 0 .453-.047.893-.107 1.333zM8 13.307c-.553-.8-1-1.687-1.273-2.64h2.546A9.042 9.042 0 0 1 8 13.307zM5.333 5.333H3.387a5.282 5.282 0 0 1 2.88-2.373c-.4.74-.7 1.54-.934 2.373zm-1.946 5.334h1.946c.234.833.534 1.633.934 2.373a5.338 5.338 0 0 1-2.88-2.373zM2.84 9.333A5.495 5.495 0 0 1 2.667 8c0-.46.066-.907.173-1.333h2.253C5.04 7.107 5 7.547 5 8c0 .453.04.893.093 1.333H2.84zM8 2.687c.553.8 1 1.693 1.273 2.646H6.727A9.08 9.08 0 0 1 8 2.687zm4.613 2.646h-1.966a10.434 10.434 0 0 0-.92-2.373 5.325 5.325 0 0 1 2.886 2.373zM8 1.333c-3.687 0-6.667 3-6.667 6.667A6.667 6.667 0 1 0 8 1.333z" />
    </symbol>
    <symbol id="icons-icon-line-notification-new" viewBox="0 0 24 25">
        <path
            fill-rule="evenodd"
            clip-rule="evenodd"
            d="M17.15 14.7c0 .374.099.742.288 1.069l.971 1.681H5.591l.972-1.681c.189-.327.288-.695.288-1.069V8.65C6.85 5.916 9.156 3.7 12 3.7c2.843 0 5.149 2.216 5.149 4.95v6.05zm-7.366 4.95c.254.95 1.15 1.65 2.216 1.65 1.066 0 1.963-.7 2.217-1.65H9.784z"
            fill="#fff"
        />
        <path
            fill-rule="evenodd"
            clip-rule="evenodd"
            d="M17.15 14.7c0 .374.099.742.287 1.068l.972 1.682H5.591l.972-1.682c.188-.326.288-.694.288-1.068V8.65C6.85 5.916 9.156 3.7 12 3.7s5.15 2.216 5.15 4.95v6.05zM2.645 18.016 4.562 14.7V8.65c0-3.949 3.33-7.15 7.438-7.15s7.438 3.201 7.438 7.15v6.05l1.916 3.316c.424.733-.127 1.634-1 1.634h-3.812C16.26 21.82 14.334 23.5 12 23.5c-2.334 0-4.26-1.68-4.542-3.85H3.646c-.873 0-1.424-.901-1-1.634zm7.137 1.634c.255.949 1.15 1.65 2.217 1.65 1.066 0 1.963-.701 2.216-1.65H9.784z"
        />
        <circle cx="17" cy="7.5" r="7" fill="#EF4444" />
        <path
            d="M18.262 4.5v3.809h-.053L15.595 4.5H14.5v6h1.244V6.688h.044l2.635 3.812H19.5v-6h-1.238z"
            fill="#fff"
        />
    </symbol>
    <symbol id="icons-icon-line-notification" viewBox="0 0 24 25">
        <path
            fill-rule="evenodd"
            clip-rule="evenodd"
            d="M17.15 14.7c0 .374.099.742.288 1.069l.971 1.681H5.591l.972-1.681c.189-.327.288-.695.288-1.069V8.65C6.85 5.916 9.156 3.7 12 3.7c2.843 0 5.149 2.216 5.149 4.95v6.05zm-7.366 4.95c.254.95 1.15 1.65 2.216 1.65 1.066 0 1.963-.7 2.217-1.65H9.784z"
            fill="#fff"
        />
        <path
            fill-rule="evenodd"
            clip-rule="evenodd"
            d="M17.15 14.7c0 .374.099.742.287 1.068l.972 1.682H5.591l.972-1.682c.188-.326.288-.694.288-1.068V8.65C6.85 5.916 9.156 3.7 12 3.7s5.15 2.216 5.15 4.95v6.05zM2.645 18.016 4.562 14.7V8.65c0-3.949 3.33-7.15 7.438-7.15s7.438 3.201 7.438 7.15v6.05l1.916 3.316c.424.733-.127 1.634-1 1.634h-3.812C16.26 21.82 14.334 23.5 12 23.5c-2.334 0-4.26-1.68-4.542-3.85H3.646c-.873 0-1.424-.901-1-1.634zm7.137 1.634c.255.949 1.15 1.65 2.217 1.65 1.066 0 1.963-.701 2.216-1.65H9.784z"
        />
    </symbol>
    <symbol id="icons-icon-line-outlink" viewBox="0 0 15 14">
        <path
            fill-rule="evenodd"
            clip-rule="evenodd"
            d="M8.74 2.625a.583.583 0 1 1 0-1.167h3.719c.322 0 .583.261.583.584V5.76a.583.583 0 1 1-1.167 0V3.45L6.673 8.652a.583.583 0 1 1-.825-.825l5.202-5.202H8.74zM3.78 3.865a.656.656 0 0 0-.656.656v6.198c0 .362.294.656.656.656H9.98a.656.656 0 0 0 .657-.656v-2.48a.583.583 0 1 1 1.166 0v2.48a1.823 1.823 0 0 1-1.823 1.823H3.781a1.823 1.823 0 0 1-1.823-1.823V4.52c0-1.007.817-1.823 1.823-1.823h2.48a.583.583 0 1 1 0 1.167H3.78z"
        />
    </symbol>
    <symbol id="icons-icon-line-plus" viewBox="0 0 16 16">
        <path
            fill-rule="evenodd"
            clip-rule="evenodd"
            d="M8.666 2.334a.667.667 0 1 0-1.333 0v5h-5a.667.667 0 0 0 0 1.333h5v5a.667.667 0 1 0 1.333 0v-5h5a.667.667 0 1 0 0-1.333h-5v-5z"
        />
    </symbol>
    <symbol id="icons-icon-line-question" viewBox="0 0 47 47">
        <path
            fill-rule="evenodd"
            clip-rule="evenodd"
            d="M42 24c0 9.941-8.059 18-18 18S6 33.941 6 24 14.059 6 24 6s18 8.059 18 18zm4 0c0 12.15-9.85 22-22 22S2 36.15 2 24 11.85 2 24 2s22 9.85 22 22zM24.236 35.372a2.291 2.291 0 1 0 0-4.583 2.291 2.291 0 0 0 0 4.583zM24.405 13c1.899 0 3.562.621 4.676 1.75 1.046 1.06 1.586 2.518 1.566 4.212-.031 2.537-1.575 4.202-2.816 5.54-1.659 1.788-1.738 2.776-1.714 3.993h-3.676c-.01-2.704.037-3.896 2.626-6.358 1.048-.997 1.877-1.785 1.763-3.338-.104-1.476-1.338-2.248-2.5-2.248-1.012 0-2.157.585-2.615 2.13-.248.836-.913 1.56-1.785 1.56-1.164 0-2.14-.955-1.89-2.092.698-3.187 3.044-5.149 6.365-5.149z"
        />
    </symbol>
    <symbol id="icons-icon-line-recommend" viewBox="0 0 14 14">
        <path
            fill-rule="evenodd"
            clip-rule="evenodd"
            d="m11.305 7.258-1.685 3.84a.535.535 0 0 1-.472.277h-4.19V6.46L7.34 2.7c.157.092.258.26.258.445v2.754c0 .322.261.584.583.584h2.66a.52.52 0 0 1 .464.776zm-7.513-.146v4.263H2.625V7.288l1.167-.176zm5.356 5.43a1.701 1.701 0 0 0 1.533-.958l1.686-3.843c.558-1.129-.28-2.426-1.527-2.426H8.765V3.144c0-.77-.52-1.413-1.22-1.617-.53-.155-.956.176-1.145.474L3.924 5.912l-1.97.297a.583.583 0 0 0-.496.577v5.172c0 .323.261.584.584.584h7.106z"
        />
    </symbol>
    <symbol id="icons-icon-line-reply" viewBox="0 0 14 14">
        <path
            fill-rule="evenodd"
            clip-rule="evenodd"
            d="M5.25 11.013V9.58l-.662-.318c-1.475-.708-2.255-1.936-2.255-3.195C2.333 4.192 4.23 2.334 7 2.334s4.667 1.858 4.667 3.733c0 1.838-1.815 3.655-4.501 3.73l-.386.012-1.53 1.204zM1.167 6.067c0-2.702 2.617-4.9 5.833-4.9 3.217 0 5.833 2.198 5.833 4.9 0 2.646-2.51 4.81-5.635 4.897l-2.17 1.71a.583.583 0 0 1-.945-.459v-1.9c-1.81-.87-2.916-2.467-2.916-4.248zm3.5.642a.583.583 0 1 0 0-1.167.583.583 0 0 0 0 1.167zm2.333 0a.583.583 0 1 0 0-1.167.583.583 0 0 0 0 1.167zm2.917-.584a.583.583 0 1 1-1.167 0 .583.583 0 0 1 1.167 0z"
        />
    </symbol>
    <symbol id="icons-icon-line-right" viewBox="0 0 12 12">
        <path d="M2.58 5.5a.5.5 0 0 0 0 1h5.5L5.685 8.895a.502.502 0 0 0 .71.71L9.01 6.99a1.4 1.4 0 0 0 0-1.98L6.395 2.395a.502.502 0 0 0-.71.71L8.08 5.5h-5.5z" />
    </symbol>
    <symbol id="icons-icon-line-search" viewBox="0 0 48 48">
        <path
            fill-rule="evenodd"
            clip-rule="evenodd"
            d="M36 21c0 8.284-6.716 15-15 15-8.284 0-15-6.716-15-15 0-8.284 6.716-15 15-15 8.284 0 15 6.716 15 15zm-3.053 14.775A18.92 18.92 0 0 1 21 40C10.507 40 2 31.493 2 21S10.507 2 21 2s19 8.507 19 19a18.92 18.92 0 0 1-4.225 11.947l9.64 9.639a2 2 0 1 1-2.83 2.828l-9.638-9.639z"
        />
    </symbol>
    <symbol id="icons-icon-line-share" viewBox="0 0 47 47">
        <path
            fill-rule="evenodd"
            clip-rule="evenodd"
            d="M9 25.73c0-1.09-.895-1.974-2-1.974s-2 .884-2 1.974v14.803C5 41.895 6.12 43 7.5 43h33c1.38 0 2.5-1.105 2.5-2.467V25.73c0-1.09-.895-1.974-2-1.974s-2 .884-2 1.974v13.323H9V25.73z"
        />
        <path
            fill-rule="evenodd"
            clip-rule="evenodd"
            d="M24 6.54a2 2 0 0 0-2 2v20a2 2 0 1 0 4 0v-20a2 2 0 0 0-2-2z"
        />
        <path
            fill-rule="evenodd"
            clip-rule="evenodd"
            d="M26.949 5.797a4 4 0 0 0-5.898 0L11.526 16.19a2 2 0 1 0 2.948 2.703L24 8.5l9.526 10.392a2 2 0 0 0 2.948-2.703L26.95 5.797z"
        />
    </symbol>
    <symbol id="icons-icon-line-star" viewBox="0 0 16 17">
        <path d="M6.996 2.454A1.115 1.115 0 0 1 8 1.834a1.125 1.125 0 0 1 1.004.62l1.557 3.135 3.48.5a1.124 1.124 0 0 1 .904.758 1.106 1.106 0 0 1-.284 1.14l-2.518 2.438.595 3.443a1.106 1.106 0 0 1-.446 1.087 1.125 1.125 0 0 1-1.178.085l-3.115-1.625-3.113 1.625a1.126 1.126 0 0 1-1.557-.565 1.105 1.105 0 0 1-.067-.607l.594-3.443-2.519-2.439a1.11 1.11 0 0 1-.282-1.14 1.112 1.112 0 0 1 .904-.757l3.48-.502 1.555-3.133h.002zM8 3.575 6.629 6.334a1.114 1.114 0 0 1-.841.608l-3.066.442L4.94 9.53a1.111 1.111 0 0 1 .322.984l-.524 3.032 2.74-1.431a1.126 1.126 0 0 1 1.042 0l2.741 1.432-.523-3.031a1.106 1.106 0 0 1 .322-.986l2.217-2.147-3.064-.442a1.124 1.124 0 0 1-.843-.608L8 3.575h.002z" />
    </symbol>
    <symbol id="icons-icon-line-system" viewBox="0 0 12 13">
        <path
            fill-rule="evenodd"
            clip-rule="evenodd"
            d="M4.583 2.114c.36-1.485 2.473-1.485 2.834 0a.458.458 0 0 0 .683.283c1.305-.795 2.798.698 2.003 2.003a.458.458 0 0 0 .283.683c1.485.36 1.485 2.473 0 2.834a.458.458 0 0 0-.283.683c.795 1.305-.698 2.798-2.003 2.003a.458.458 0 0 0-.683.283c-.36 1.485-2.473 1.485-2.834 0a.458.458 0 0 0-.683-.283c-1.305.795-2.798-.698-2.003-2.003a.458.458 0 0 0-.283-.683c-1.485-.36-1.485-2.473 0-2.834a.458.458 0 0 0 .283-.683c-.795-1.305.698-2.798 2.003-2.003.265.161.61.018.683-.283zm1.862.236c-.113-.467-.777-.467-.89 0a1.458 1.458 0 0 1-2.175.9c-.41-.249-.879.22-.63.63a1.458 1.458 0 0 1-.9 2.175c-.467.113-.467.777 0 .89a1.458 1.458 0 0 1 .9 2.175c-.249.41.22.879.63.63a1.458 1.458 0 0 1 2.175.9c.113.467.777.467.89 0a1.458 1.458 0 0 1 2.175-.9c.41.249.879-.22.63-.63a1.458 1.458 0 0 1 .9-2.175c.467-.113.467-.777 0-.89a1.458 1.458 0 0 1-.9-2.175c.249-.41-.22-.879-.63-.63a1.458 1.458 0 0 1-2.175-.9zM6 5.333a1.167 1.167 0 1 0 0 2.334 1.167 1.167 0 0 0 0-2.334zM3.833 6.5a2.167 2.167 0 1 1 4.334 0 2.167 2.167 0 0 1-4.334 0z"
        />
    </symbol>
    <symbol id="icons-icon-line-thin-check" viewBox="0 0 16 17">
        <path d="M3.954 8.807a16.703 16.703 0 0 0 1.077 4.162c.13.324.532.413.737.098 1.5-2.315 3.08-4.575 4.738-6.777.47-.622.946-1.24 1.429-1.853.135-.173.166-.412 0-.58-.14-.143-.434-.175-.571 0a118.398 118.398 0 0 0-6.294 8.795l.737.099a15.958 15.958 0 0 1-1.048-3.944c-.028-.22-.165-.41-.404-.41-.193 0-.429.188-.401.41z" />
    </symbol>
    <symbol id="icons-icon-line-time" viewBox="0 0 19 18">
        <path
            fill-rule="evenodd"
            clip-rule="evenodd"
            d="M16.083 9a6.75 6.75 0 1 1-13.5 0 6.75 6.75 0 0 1 13.5 0zm1.5 0a8.25 8.25 0 1 1-16.5 0 8.25 8.25 0 0 1 16.5 0zM9.521 5.625a.75.75 0 1 0-1.5 0V9.75c0 .621.504 1.125 1.125 1.125h3.375a.75.75 0 0 0 0-1.5h-3v-3.75z"
        />
    </symbol>
    <symbol id="icons-icon-line-tree" viewBox="0 0 48 48">
        <path
            fill-rule="evenodd"
            clip-rule="evenodd"
            d="M16.6512 11V32.3455H37V37H12V11H16.6512Z"
        />
    </symbol>
    <symbol id="icons-icon-line-up" viewBox="0 0 16 16">
        <path
            fill-rule="evenodd"
            clip-rule="evenodd"
            d="M8.834 4.667c0-.369.298-.667.666-.667h4c.368 0 .667.298.667.667v4a.667.667 0 1 1-1.333 0V5.333H9.5a.667.667 0 0 1-.666-.666z"
        />
        <path
            fill-rule="evenodd"
            clip-rule="evenodd"
            d="M13.621 4.513c.27.251.284.673.033.942l-4.667 5a.667.667 0 0 1-.921.051L6.191 8.9l-3.397 3.25a.667.667 0 0 1-.922-.964l3.834-3.667a.667.667 0 0 1 .894-.024l1.848 1.584 4.231-4.533a.667.667 0 0 1 .942-.032z"
        />
    </symbol>
    <symbol id="icons-icon-line-users" viewBox="0 0 20 20">
        <path
            fill-rule="evenodd"
            clip-rule="evenodd"
            d="M15 5.833a2.083 2.083 0 1 1-4.167 0 2.083 2.083 0 0 1 4.167 0zm-2.083 3.75a3.75 3.75 0 1 0 0-7.5 3.75 3.75 0 0 0 0 7.5zm-5.834-1.25a1.667 1.667 0 1 1-3.333 0 1.667 1.667 0 0 1 3.333 0zm-1.666 3.334a3.333 3.333 0 1 0 0-6.667 3.333 3.333 0 0 0 0 6.667zm2.624.883c1.136-1.271 2.844-2.133 4.876-2.133 3.16 0 5.538 2.087 6.197 4.557.038.143.053.282.053.412v2.948H17.5V15.39c-.472-1.746-2.194-3.307-4.583-3.307-2.39 0-4.112 1.56-4.584 3.307v2.943H6.667v-2.948c0-.13.014-.27.052-.412.093-.346.219-.684.375-1.01a3.727 3.727 0 0 0-1.26-.214c-1.742 0-2.985 1.121-3.334 2.36v2.224H.833v-2.23c0-.13.015-.272.056-.42.54-1.963 2.44-3.6 4.944-3.6.806 0 1.55.17 2.208.466z"
        />
    </symbol>
    <symbol id="icons-icon-line-write" viewBox="0 0 24 24">
        <path
            fill-rule="evenodd"
            clip-rule="evenodd"
            d="M21.725 7.17a.938.938 0 0 0 0-1.326l-3.568-3.57a.939.939 0 0 0-1.327 0L2.977 16.129l-.958 4.747a.939.939 0 0 0 1.106 1.106l4.746-.958L21.725 7.171zM6.885 19.183 19.56 6.507 17.493 4.44 4.818 17.115l-.522 2.59 2.588-.523z"
        />
    </symbol>
    <symbol id="icons-icon-liview" viewBox="0 0 48 48">
        <path
            fill-rule="evenodd"
            clip-rule="evenodd"
            d="M0.288096 22.4466C13.5725 -0.815523 34.4275 -0.815523 47.7119 22.4466C48.096 23.1048 48.096 24.2286 47.7119 24.8868C34.4275 48.1489 13.5725 48.1489 0.288096 24.8868C-0.096032 24.2286 -0.096032 23.1048 0.288096 22.4466ZM11.924 23.6667C11.924 30.3611 17.3338 35.7713 23.992 35.7713C30.6662 35.7713 36.06 30.3451 36.06 23.6667C36.06 16.9882 30.6662 11.562 23.992 11.562C17.3178 11.562 11.924 16.9722 11.924 23.6667ZM23.8157 16.1855H23.9758C28.0891 16.1855 31.4182 19.5248 31.4182 23.6506C31.4182 27.7765 28.0891 31.1157 23.9758 31.1157C19.8624 31.1157 16.5333 27.7765 16.5333 23.6506C16.5333 23.185 16.5813 22.7195 16.6613 22.27C17.5096 23.1048 18.678 23.6346 19.9744 23.6346C22.5673 23.6346 24.68 21.5154 24.68 18.9147C24.68 17.8873 24.3599 16.9561 23.8157 16.1855Z"
        />
    </symbol>
    <symbol id="icons-icon-new-post" viewBox="0 0 24 28">
        <path
            fill-rule="evenodd"
            clip-rule="evenodd"
            d="M4.232 9.762c0-.59.496-1.067 1.108-1.067h11.084c.613 0 1.109.478 1.109 1.067 0 .59-.497 1.067-1.109 1.067H5.34c-.612 0-1.108-.477-1.108-1.067zm0 5.693c0-.59.496-1.068 1.109-1.068h11.083c.613 0 1.109.478 1.109 1.068 0 .59-.496 1.067-1.109 1.067H5.341c-.613 0-1.109-.478-1.109-1.067zm1.109 3.913c-.613 0-1.109.478-1.109 1.068 0 .59.496 1.067 1.109 1.067h5.911c.612 0 1.108-.478 1.108-1.067 0-.59-.496-1.068-1.108-1.068H5.341zM3.348 3.008C1.5 3.007 0 4.45 0 6.231v17.734c0 1.78 1.5 3.224 3.348 3.224h15.068c1.85 0 3.349-1.443 3.349-3.224V6.232c0-1.781-1.5-3.225-3.349-3.225H3.348z"
            fill="#C4B5FD"
        />
        <circle cx="19.42" cy="5.389" r="4.58" fill="#F87171" />
        <path
            d="M20.245 3.426v2.492h-.034l-1.71-2.492h-.717v3.926h.814V4.858h.029l1.724 2.494h.705V3.426h-.81z"
            fill="#fff"
        />
    </symbol>
    <symbol id="icons-icon-sns-facebook" viewBox="0 0 24 24">
        <path d="M17 3.992a.504.504 0 0 0-.133-.344.44.44 0 0 0-.322-.142h-2.272a4.17 4.17 0 0 0-3.117 1.184c-.852.82-1.365 1.966-1.429 3.19v2.623H7.455a.44.44 0 0 0-.322.143.503.503 0 0 0-.133.343v2.527c0 .13.048.253.133.344a.44.44 0 0 0 .322.142h2.272v6.512c0 .129.048.253.133.344a.44.44 0 0 0 .322.142h2.727a.44.44 0 0 0 .321-.142.504.504 0 0 0 .134-.344v-6.512h2.381c.102.002.2-.033.28-.098a.488.488 0 0 0 .166-.261l.655-2.527a.52.52 0 0 0-.078-.421.462.462 0 0 0-.159-.14.432.432 0 0 0-.2-.052h-3.045V7.88a.997.997 0 0 1 .296-.625.877.877 0 0 1 .613-.25h2.273a.44.44 0 0 0 .32-.142A.504.504 0 0 0 17 6.52V3.992z" />
    </symbol>
    <symbol id="icons-icon-sns-insta" viewBox="0 0 24 24">
        <path
            fill-rule="evenodd"
            clip-rule="evenodd"
            d="M8.29 3.054C9.25 3.01 9.555 3 12 3c2.445 0 2.75.01 3.71.054.959.043 1.613.196 2.186.418.6.227 1.144.581 1.594 1.04.458.448.811.992 1.037 1.592.223.573.375 1.227.419 2.185C20.99 9.25 21 9.556 21 12c0 2.445-.01 2.75-.054 3.71-.043.958-.196 1.612-.419 2.185-.226.6-.58 1.145-1.037 1.595-.45.458-.994.811-1.594 1.037-.573.223-1.227.375-2.185.419-.96.044-1.266.054-3.711.054s-2.75-.01-3.71-.054c-.958-.043-1.612-.196-2.185-.419A4.416 4.416 0 0 1 4.51 19.49a4.41 4.41 0 0 1-1.038-1.594c-.222-.573-.374-1.227-.418-2.185C3.01 14.75 3 14.444 3 12c0-2.445.01-2.75.054-3.71.043-.959.196-1.613.418-2.186.227-.6.581-1.144 1.04-1.594.448-.457.992-.812 1.592-1.038.573-.222 1.227-.374 2.185-.418zm7.347 1.62c-.95-.043-1.234-.052-3.637-.052s-2.688.009-3.637.052c-.878.04-1.354.187-1.671.31-.42.164-.72.358-1.035.673-.299.29-.529.644-.673 1.035-.123.317-.27.793-.31 1.671-.043.95-.052 1.234-.052 3.637s.009 2.688.052 3.637c.04.878.187 1.354.31 1.671.144.39.374.745.673 1.035.29.299.644.529 1.035.673.317.124.793.27 1.671.31.95.043 1.233.052 3.637.052s2.688-.009 3.637-.052c.878-.04 1.354-.186 1.671-.31.42-.164.72-.358 1.035-.673.299-.29.529-.644.673-1.035.124-.317.27-.793.31-1.671.043-.95.052-1.234.052-3.637s-.009-2.688-.052-3.637c-.04-.878-.186-1.354-.31-1.671a2.794 2.794 0 0 0-.673-1.035 2.793 2.793 0 0 0-1.035-.673c-.317-.123-.793-.27-1.671-.31zm-4.787 10.1a3.002 3.002 0 1 0 2.162-5.6 3.002 3.002 0 0 0-2.162 5.6zM8.73 8.73a4.626 4.626 0 1 1 6.542 6.542 4.626 4.626 0 0 1-6.542-6.542zm8.923-.666a1.094 1.094 0 1 0-1.501-1.592 1.094 1.094 0 0 0 1.501 1.592z"
        />
    </symbol>
    <symbol id="icons-icon-sns-twitter" viewBox="0 0 24 24">
        <path d="M20.976 6.233a7.386 7.386 0 0 1-2.118.58 3.697 3.697 0 0 0 1.621-2.04 7.363 7.363 0 0 1-2.341.894 3.69 3.69 0 0 0-6.285 3.365 10.473 10.473 0 0 1-7.601-3.854 3.69 3.69 0 0 0 1.142 4.924 3.678 3.678 0 0 1-1.671-.461v.047a3.69 3.69 0 0 0 2.958 3.617 3.714 3.714 0 0 1-1.665.063 3.69 3.69 0 0 0 3.445 2.56A7.4 7.4 0 0 1 3 17.456a10.43 10.43 0 0 0 5.652 1.657c6.785 0 10.494-5.62 10.494-10.493 0-.158-.004-.318-.011-.476a7.498 7.498 0 0 0 1.839-1.908l.002-.003z" />
    </symbol>
    <symbol id="icons-icon-solid-alltopics" viewBox="0 0 20 20">
        <path
            fill-rule="evenodd"
            clip-rule="evenodd"
            d="M3.333 1.666c-.92 0-1.667.746-1.667 1.667v4.166c0 .92.747 1.667 1.667 1.667H7.5c.92 0 1.666-.746 1.666-1.667V3.333c0-.92-.746-1.667-1.666-1.667H3.333zm0 9.167c-.92 0-1.667.746-1.667 1.666v4.167c0 .92.747 1.667 1.667 1.667H7.5c.92 0 1.666-.746 1.666-1.667v-4.167c0-.92-.746-1.666-1.666-1.666H3.333zm7.5-7.5c0-.92.746-1.667 1.667-1.667h4.166c.921 0 1.667.746 1.667 1.667v4.166c0 .92-.746 1.667-1.666 1.667H12.5c-.92 0-1.667-.746-1.667-1.667V3.333zm1.667 7.5c-.92 0-1.667.746-1.667 1.666v4.167c0 .92.746 1.667 1.667 1.667h4.166c.921 0 1.667-.746 1.667-1.667v-4.167c0-.92-.746-1.666-1.666-1.666H12.5z"
        />
    </symbol>
    <symbol id="icons-icon-solid-bookmark" viewBox="0 0 14 15">
        <path d="M2.625 12.184c0 .455.494.723.857.466L7 10.153l3.518 2.497c.363.257.857-.01.857-.466V2.621c0-.205-.18-.371-.4-.371h-7.95c-.22 0-.4.166-.4.371v9.563z" />
    </symbol>
    <symbol id="icons-icon-solid-certification" viewBox="0 0 48 48">
        <path
            fill-rule="evenodd"
            clip-rule="evenodd"
            d="m41.123 18.335 2.08 1.76h.02A5.069 5.069 0 0 1 45 23.96a5.07 5.07 0 0 1-1.777 3.865l-2.08 1.76c-.727.647-1.13 1.598-1.05 2.57l.222 2.71a5.05 5.05 0 0 1-1.453 3.986 5.003 5.003 0 0 1-3.978 1.456l-2.706-.222a2.967 2.967 0 0 0-2.564 1.052l-1.757 2.084A5.051 5.051 0 0 1 24 45a5.051 5.051 0 0 1-3.857-1.78l-1.756-2.084c-.647-.729-1.596-1.133-2.565-1.052l-2.706.222a5.029 5.029 0 0 1-5.431-5.442l.222-2.71a3.033 3.033 0 0 0-1.05-2.57l-2.08-1.76A5.069 5.069 0 0 1 3 23.959c0-1.497.646-2.892 1.777-3.864l2.08-1.76c.727-.647 1.13-1.598 1.05-2.57l-.222-2.71a5.028 5.028 0 0 1 5.432-5.442l2.705.222c.97.081 1.939-.303 2.565-1.052L20.143 4.7c1.918-2.265 5.775-2.265 7.694 0l1.756 2.084c.646.729 1.596 1.133 2.565 1.052l2.706-.222a5.028 5.028 0 0 1 5.431 5.442l-.222 2.71a3.033 3.033 0 0 0 1.05 2.57zM22.66 30.906l10.614-10.593a1.617 1.617 0 1 0-2.291-2.287l-9.468 9.45-4.442-4.433a1.617 1.617 0 1 0-2.291 2.287l5.587 5.576a1.63 1.63 0 0 0 1.146.467c.42 0 .841-.164 1.145-.467z"
        />
    </symbol>
    <symbol id="icons-icon-solid-discovery-3" viewBox="0 0 47 47">
        <path d="M40.383 10.227a7.289 7.289 0 0 0-2.61-3.79A7.132 7.132 0 0 0 33.438 5a7.193 7.193 0 0 0-4.885 1.926 7.375 7.375 0 0 0-2.324 4.76h-4.455a7.384 7.384 0 0 0-2.332-4.763A7.201 7.201 0 0 0 14.549 5a7.128 7.128 0 0 0-4.328 1.44 7.284 7.284 0 0 0-2.604 3.787l-5.525 18.65c-.06.207-.091.423-.092.64v2.228a11.231 11.231 0 0 0 3.226 7.877 10.942 10.942 0 0 0 7.776 3.267 10.905 10.905 0 0 0 6.016-1.825 11.115 11.115 0 0 0 4.051-4.861h1.862a11.115 11.115 0 0 0 4.051 4.86 10.905 10.905 0 0 0 6.016 1.826 10.942 10.942 0 0 0 7.776-3.268A11.231 11.231 0 0 0 46 31.743v-2.227c0-.218-.033-.432-.092-.64l-5.525-18.65zM13.003 38.43a6.568 6.568 0 0 1-4.666-1.96A6.742 6.742 0 0 1 6.4 31.745c0-.17.037-.328.048-.495a6.71 6.71 0 0 1 2.078-4.397A6.543 6.543 0 0 1 13 25.059c1.75 0 3.43.704 4.667 1.958a6.731 6.731 0 0 1 1.933 4.728v.02a6.74 6.74 0 0 1-1.942 4.712 6.565 6.565 0 0 1-4.656 1.954zm21.995 0a6.565 6.565 0 0 1-4.656-1.954 6.74 6.74 0 0 1-1.942-4.712v-.02c0-.878.17-1.747.502-2.559a6.694 6.694 0 0 1 1.43-2.17A6.557 6.557 0 0 1 35 25.059c1.75 0 3.43.704 4.667 1.957a6.742 6.742 0 0 1-.002 9.454 6.569 6.569 0 0 1-4.666 1.962z" />
    </symbol>
    <symbol id="icons-icon-solid-ellipse" viewBox="0 0 8 8">
        <circle cx="4" cy="4" r="4" />
    </symbol>
    <symbol id="icons-icon-solid-home" viewBox="0 0 47 47">
        <path
            fill-rule="evenodd"
            clip-rule="evenodd"
            d="M2 24.828a2 2 0 0 1 .586-1.414l20-20a2 2 0 0 1 2.828 0l20 20A2 2 0 0 1 46 24.828V44a2 2 0 0 1-2 2H31a2 2 0 0 1-2-2v-8a2 2 0 0 0-2-2h-6a2 2 0 0 0-2 2v8a2 2 0 0 1-2 2H4a2 2 0 0 1-2-2V24.828z"
        />
    </symbol>
    <symbol id="icons-icon-solid-middle-dot-purple" viewBox="0 0 4 4">
        <circle cx="2" cy="2" r="2" fill="#8B5CF6" />
    </symbol>
    <symbol id="icons-icon-solid-originals" viewBox="0 0 21 20">
        <path d="M16.053 2.5a1.861 1.861 0 0 0-1.686 1.075 7.225 7.225 0 0 0-3.81-1.075A7.32 7.32 0 0 0 5.39 4.636a7.29 7.29 0 0 0-2.14 5.156 7.278 7.278 0 0 0 2.14 5.156 7.308 7.308 0 0 0 5.167 2.135 7.179 7.179 0 0 0 3.81-1.075 1.825 1.825 0 0 0 2.026.98 1.827 1.827 0 0 0 1.44-1.728V4.354a1.837 1.837 0 0 0-1.78-1.854zm-1.92 7.276a3.562 3.562 0 0 1-2.19 3.367c-.438.184-.91.279-1.386.279a3.66 3.66 0 0 1-3.307-2.097 3.639 3.639 0 0 1 .496-3.878 3.654 3.654 0 0 1 3.73-1.2 3.655 3.655 0 0 1 2.672 2.86l-.015.67z" />
    </symbol>
    <symbol id="icons-icon-solid-pin" viewBox="0 0 16 16">
        <path d="M12.667 11.333c0-1.358-.792-2.557-2-3.28v-4.72H11a1 1 0 1 0 0-2H5a1 1 0 0 0 0 2h.333v4.72c-1.208.723-2 1.922-2 3.28h4V14c0 .367.3.667.667.667.367 0 .667-.3.667-.667v-2.667h4z" />
    </symbol>
    <symbol id="icons-icon-solid-question" viewBox="0 0 47 47">
        <path d="M24 2C11.85 2 2 11.85 2 24s9.85 22 22 22 22-9.85 22-22S36.15 2 24 2zm0 33.458a2.292 2.292 0 1 1 .002-4.585A2.292 2.292 0 0 1 24 35.458zm3.595-10.868c-1.657 1.788-1.736 2.776-1.714 3.993h-3.676c-.013-2.704.037-3.895 2.624-6.358 1.05-.997 1.879-1.787 1.763-3.338-.106-1.476-1.338-2.248-2.502-2.248-1.014 0-2.174.588-2.635 2.139-.247.831-.908 1.552-1.776 1.552-1.156 0-2.126-.95-1.88-2.08.694-3.195 3.041-5.162 6.368-5.162 1.9 0 3.56.622 4.675 1.75 1.045 1.06 1.586 2.516 1.566 4.214-.03 2.535-1.572 4.2-2.813 5.538z" />
    </symbol>
    <symbol id="icons-icon-solid-recommend" viewBox="0 0 47 47">
        <path
            fill-rule="evenodd"
            clip-rule="evenodd"
            d="M38.716 19.683h-10.19V9.126c0-1.96-1.354-3.61-3.19-4.085-.663-.172-1.311.213-1.678.792L13.551 21.794V42.91H32.23c1.62 0 3.102-.904 3.827-2.335l6.487-14.78c1.422-2.807-.646-6.11-3.827-6.11zM9 23a4 4 0 0 0-4 4v12a4 4 0 0 0 4 4h2V23H9z"
        />
    </symbol>
    <symbol id="icons-icon-solid-star" viewBox="0 0 14 15">
        <path d="M6.121 2.21A.976.976 0 0 1 7 1.666a.985.985 0 0 1 .879.542L9.24 4.952l3.045.438a.983.983 0 0 1 .791.663.967.967 0 0 1-.248.998l-2.204 2.133.52 3.012a.967.967 0 0 1-.39.951.984.984 0 0 1-1.03.075L6.999 11.8l-2.724 1.422a.985.985 0 0 1-1.362-.495.967.967 0 0 1-.059-.53l.52-3.013L1.17 7.05a.972.972 0 0 1 .544-1.66l3.045-.44 1.36-2.74h.002z" />
    </symbol>
    <symbol id="icons-icon-solid-subscribe" viewBox="0 0 47 47">
        <path
            fill-rule="evenodd"
            clip-rule="evenodd"
            d="M8 4a4 4 0 0 0-4 4v10a4 4 0 0 0 4 4h10a4 4 0 0 0 4-4V8a4 4 0 0 0-4-4H8zm0 22a4 4 0 0 0-4 4v10a4 4 0 0 0 4 4h10a4 4 0 0 0 4-4V30a4 4 0 0 0-4-4H8zM26 9a2 2 0 0 1 2-2h14a2 2 0 1 1 0 4H28a2 2 0 0 1-2-2zm2 20a2 2 0 1 0 0 4h14a2 2 0 1 0 0-4H28zm-2-12a2 2 0 0 1 2-2h14a2 2 0 1 1 0 4H28a2 2 0 0 1-2-2zm2 20a2 2 0 1 0 0 4h14a2 2 0 1 0 0-4H28z"
        />
    </symbol>
    <symbol id="icons-icon-solid-today" viewBox="0 0 21 20">
        <path
            fill-rule="evenodd"
            clip-rule="evenodd"
            d="M3.833 1.667c-.92 0-1.667.746-1.667 1.667v13.333c0 .92.747 1.667 1.667 1.667h13.334c.92 0 1.666-.747 1.666-1.667V3.334c0-.92-.746-1.667-1.666-1.667H3.832zM4.666 5c0-.46.374-.833.834-.833h4.166c.46 0 .834.373.834.833v4.167c0 .46-.373.833-.834.833H5.5a.833.833 0 0 1-.833-.833V5zm7.917.209a.625.625 0 1 0 0 1.25h3.333a.625.625 0 1 0 0-1.25h-3.333zm-7.5 6.666a.625.625 0 1 0 0 1.25h10.834a.625.625 0 1 0 0-1.25H5.082zm6.875-3.541c0-.346.28-.625.625-.625h3.333a.625.625 0 1 1 0 1.25h-3.333a.625.625 0 0 1-.625-.625zm-6.875 6.041a.625.625 0 1 0 0 1.25h10.834a.625.625 0 1 0 0-1.25H5.082z"
        />
    </symbol>
    <symbol id="icons-icon-solid-user" viewBox="0 0 48 48">
        <circle cx="24" cy="24" r="24" fill="#fff" />
        <path
            fill-rule="evenodd"
            clip-rule="evenodd"
            d="M48 24c0 13.255-10.745 24-24 24S0 37.255 0 24 10.745 0 24 0s24 10.745 24 24zm-18-9a6 6 0 1 1-12 0 6 6 0 0 1 12 0zm-6 12c-5.595 0-10.475 3.063-13.053 7.604-.386.68-.265 1.53.287 2.086A17.944 17.944 0 0 0 24 42c4.99 0 9.505-2.03 12.766-5.31a1.738 1.738 0 0 0 .287-2.086C34.474 30.064 29.595 27 24 27z"
        />
    </symbol>
    <symbol id="icons-icon-solid-users" viewBox="0 0 48 48">
        <path
            fill-rule="evenodd"
            clip-rule="evenodd"
            d="M40 13a9 9 0 1 1-18 0 9 9 0 0 1 18 0zm-22 7a7 7 0 1 1-14 0 7 7 0 0 1 14 0zm0 15.394C18 29 24.71 24 32 24s14 5.5 14 11.394V42a2 2 0 0 1-2 2H20a2 2 0 0 1-2-2v-6.606zM13.667 29C7.592 29 2 32.5 2 37.545V42a2 2 0 0 0 2 2h10.25v-9.23c0-1.753.576-3.08 1.146-3.966.414-.644.2-1.606-.558-1.717A8.158 8.158 0 0 0 13.668 29z"
        />
    </symbol>
    <symbol id="icons-icon-solid-write" viewBox="0 0 47 47">
        <path d="M43.45 11.687a1.877 1.877 0 0 1 0 2.655L15.743 42.047l-9.494 1.915a1.877 1.877 0 0 1-2.21-2.211l1.915-9.495L33.659 4.55a1.877 1.877 0 0 1 2.655 0l7.136 7.137z" />
    </symbol>
    <symbol id="icons-my-location" viewBox="0 0 24 24">
        <path
            fill-rule="evenodd"
            clip-rule="evenodd"
            d="M12 22c5.523 0 10-4.477 10-10S17.523 2 12 2 2 6.477 2 12s4.477 10 10 10zm0 2c6.627 0 12-5.373 12-12S18.627 0 12 0 0 5.373 0 12s5.373 12 12 12z"
        />
        <path d="M14 12a2 2 0 1 1-4 0 2 2 0 0 1 4 0z" />
        <path
            fill-rule="evenodd"
            clip-rule="evenodd"
            d="M11 23v-5h2v5h-2zM11 7V2h2v5h-2zM23 13h-5v-2h5v2zM6 13H2v-2h4v2z"
        />
    </symbol>
</svg>