<svg width="16" height="16" viewBox="0 0 16 16" fill="none" xmlns="http://www.w3.org/2000/svg">
<mask id="mask0_579_5064" style="mask-type:alpha" maskUnits="userSpaceOnUse" x="0" y="0" width="16" height="16">
<rect width="16" height="16" fill="#D9D9D9"/>
</mask>
<g mask="url(#mask0_579_5064)">
<path d="M4.40234 13.6H0.800049V5.60005H4.40005L4.40234 5.59775V13.6Z" fill="#1C1B1F"/>
<path d="M5.59766 13.6H12C12.2445 13.6 12.4667 13.5334 12.6667 13.4C12.8667 13.2667 13.0163 13.09 13.1155 12.87L15.1 8.21672C15.1334 8.13894 15.1584 8.06394 15.175 7.99172C15.1917 7.91949 15.2 7.83894 15.2 7.75005V6.80005C15.2 6.46672 15.0834 6.18338 14.85 5.95005C14.6167 5.71672 14.3334 5.60005 14 5.60005H9.60005L10.2334 2.40005L10.25 2.31672C10.2945 2.09449 10.2667 1.8806 10.1667 1.67505C10.0667 1.46949 9.92227 1.30005 9.73338 1.16672L9.20005 0.800049L5.59766 4.40244V13.6Z" fill="#1C1B1F"/>
</g>
</svg>
