<svg width="16" height="16" viewBox="0 0 16 16" fill="none" xmlns="http://www.w3.org/2000/svg">
<mask id="mask0_539_2099" style="mask-type:alpha" maskUnits="userSpaceOnUse" x="0" y="0" width="16" height="16">
<rect width="16" height="16" fill="#D9D9D9"/>
</mask>
<g mask="url(#mask0_539_2099)">
<path d="M4 2.40002H11.6V10.4L6.8 15.2L6.26667 14.8334C6.07778 14.7 5.93333 14.5306 5.83333 14.325C5.73333 14.1195 5.70555 13.9056 5.75 13.6834L5.76667 13.6L6.4 10.4H2C1.66667 10.4 1.38333 10.2834 1.15 10.05C0.916666 9.81669 0.799999 9.53336 0.799999 9.20002V8.25002C0.799999 8.16114 0.808333 8.08058 0.824999 8.00836C0.841666 7.93614 0.866666 7.86114 0.899999 7.78336L2.88333 3.13336C2.97222 2.91114 3.11944 2.73336 3.325 2.60002C3.53055 2.46669 3.75555 2.40002 4 2.40002ZM10.4 3.60002H4L2 8.25002V9.20002H7.86667L7.05 13.25L10.4 9.90002V3.60002ZM11.6 10.4V9.20002H14V3.60002H11.6V2.40002H15.2V10.4H11.6Z" fill="black"/>
</g>
</svg>
