<svg width="16" height="14" viewBox="0 0 16 14" fill="none" xmlns="http://www.w3.org/2000/svg">
<path d="M12 13.6H4.4V5.59999L9.2 0.799988L9.73334 1.16665C9.92222 1.29999 10.0667 1.46943 10.1667 1.67499C10.2667 1.88054 10.2944 2.09443 10.25 2.31665L10.2333 2.39999L9.6 5.59999H14C14.3333 5.59999 14.6167 5.71665 14.85 5.94999C15.0833 6.18332 15.2 6.46665 15.2 6.79999V7.74999C15.2 7.83888 15.1917 7.91943 15.175 7.99165C15.1583 8.06388 15.1333 8.13888 15.1 8.21666L13.1155 12.87C13.0163 13.09 12.8667 13.2667 12.6667 13.4C12.4667 13.5333 12.2444 13.6 12 13.6ZM5.6 12.4H12L14 7.74999V6.79999H8.13334L8.95 2.74999L5.6 6.09999V12.4ZM4.4 5.59999V6.79999H2V12.4H4.4V13.6H0.800003V5.59999H4.4Z" fill="black"/>
</svg>
