<svg width="16" height="16" viewBox="0 0 16 16" fill="none" xmlns="http://www.w3.org/2000/svg">
<mask id="mask0_579_5068" style="mask-type:alpha" maskUnits="userSpaceOnUse" x="0" y="0" width="16" height="16">
<rect width="16" height="16" fill="#D9D9D9"/>
</mask>
<g mask="url(#mask0_579_5068)">
<path d="M10.4026 2.3999H4.00005C3.7556 2.3999 3.5306 2.46657 3.32505 2.5999C3.11949 2.73324 2.97227 2.91101 2.88338 3.13324L0.900049 7.78324C0.866715 7.86101 0.841715 7.93601 0.825049 8.00824C0.808382 8.08046 0.800049 8.16101 0.800049 8.2499V9.1999C0.800049 9.53324 0.916715 9.81657 1.15005 10.0499C1.38338 10.2832 1.66672 10.3999 2.00005 10.3999H6.40005L5.76672 13.5999L5.75005 13.6832C5.7056 13.9055 5.73338 14.1193 5.83338 14.3249C5.93338 14.5305 6.07783 14.6999 6.26672 14.8332L6.80005 15.1999L10.4026 11.5974V2.3999Z" fill="#1C1B1F"/>
<path d="M11.5979 10.4021L11.6 10.3999H15.2V2.3999H11.5979V10.4021Z" fill="#1C1B1F"/>
</g>
</svg>
